<?xml version="1.0" encoding="utf-8"?>
<!-- Generator: Adobe Illustrator 15.0.0, SVG Export Plug-In . SVG Version: 6.00 Build 0)  -->
<!DOCTYPE svg PUBLIC "-//W3C//DTD SVG 1.1//EN" "http://www.w3.org/Graphics/SVG/1.1/DTD/svg11.dtd">
<svg version="1.1" id="Layer_1" xmlns="http://www.w3.org/2000/svg" xmlns:xlink="http://www.w3.org/1999/xlink" x="0px" y="0px"
	 width="293px" height="295px" viewBox="0 0 293 295" enable-background="new 0 0 293 295" xml:space="preserve">
<g>
	<path d="M100.418,140.484c-4.089,1.881-9.083,1.184-12.448-2.185L38.5,88.836c-4.308-4.315-4.308-11.333,0-15.649l33.969-33.966
		c4.316-4.312,11.333-4.312,15.641,0l49.471,49.467c3.458,3.451,4.089,8.619,2.025,12.763l23.766,23.77
		c14.878-17.386,14.123-43.547-2.321-59.999L111.58,15.755c-17.285-17.281-45.295-17.281-62.573,0l-33.97,33.97
		c-17.285,17.277-17.285,45.292,0,62.572l49.463,49.471c16.374,16.37,42.367,17.199,59.753,2.551L100.418,140.484z"/>
	<path d="M242.093,276.784l33.978-33.966c17.277-17.285,17.277-45.296,0-62.573l-49.471-49.471
		c-16.451-16.451-42.616-17.203-60.001-2.329l23.773,23.777c4.145-2.076,9.309-1.437,12.767,2.017l49.463,49.467
		c4.315,4.315,4.315,11.334,0,15.642l-33.97,33.97c-4.315,4.315-11.333,4.315-15.641,0l-49.471-49.463
		c-3.365-3.365-4.066-8.362-2.181-12.451l-23.836-23.836c-14.652,17.382-13.818,43.376,2.555,59.75l49.471,49.467
		C196.797,294.064,224.816,294.064,242.093,276.784z"/>
	<path d="M82.463,83.414c-6.481,6.481-6.481,16.985-0.008,23.47L183.68,208.108c6.488,6.478,16.997,6.489,23.477,0.008
		c6.481-6.481,6.474-16.993-0.007-23.474L105.925,83.414C99.444,76.933,88.944,76.937,82.463,83.414z"/>
</g>
</svg>
